#N canvas 0 79 1280 721 10;
#X declare -lib mrpeach;
#X obj 20 -182 import mrpeach;
#X obj 104 76 udpsend;
#X msg 104 -2 connect 192.168.1.18 8001;
#X msg 130 20 disconnect;
#X obj 668 -166 udpreceive 8000;
#X obj 668 -122 unpackOSC;
#X obj 668 -84 route /1/stop_left /1/stop_right;
#X obj 270 -85 comport 1 115200;
#X msg 292 -135 devices;
#X msg 367 -135 open 1;
#X floatatom 22 400 5 0 0 0 - - -;
#X obj 269 -57 s sin;
#X obj 240 300 r sin;
#X floatatom 138 400 5 0 0 0 - - -;
#X floatatom 256 400 5 0 0 0 - - -;
#X floatatom 385 400 5 0 0 0 - - -;
#N canvas 732 385 450 300 (subpatch) 0;
#X obj 119 166 switch;
#X msg 119 140 1;
#X obj 206 114 t b f;
#X msg 206 140 0;
#X obj 119 88 t f f;
#X obj 119 192 change;
#X obj 119 50 inlet;
#X obj 195 49 inlet;
#X obj 119 236 outlet;
#X obj 207 201 outlet;
#X connect 0 0 5 0;
#X connect 1 0 0 0;
#X connect 2 0 3 0;
#X connect 2 1 0 1;
#X connect 3 0 0 0;
#X connect 4 0 9 0;
#X connect 4 1 2 0;
#X connect 5 0 8 0;
#X connect 6 0 4 0;
#X connect 7 0 1 0;
#X restore 385 366 pd;
#N canvas 731 386 450 300 (subpatch) 0;
#X obj 119 166 switch;
#X msg 119 140 1;
#X obj 206 114 t b f;
#X msg 206 140 0;
#X obj 119 88 t f f;
#X obj 119 192 change;
#X obj 119 50 inlet;
#X obj 195 49 inlet;
#X obj 119 236 outlet;
#X obj 207 201 outlet;
#X connect 0 0 5 0;
#X connect 1 0 0 0;
#X connect 2 0 3 0;
#X connect 2 1 0 1;
#X connect 3 0 0 0;
#X connect 4 0 9 0;
#X connect 4 1 2 0;
#X connect 5 0 8 0;
#X connect 6 0 4 0;
#X connect 7 0 1 0;
#X restore 256 366 pd;
#N canvas 731 386 450 300 (subpatch) 0;
#X obj 119 166 switch;
#X msg 119 140 1;
#X obj 206 114 t b f;
#X msg 206 140 0;
#X obj 119 88 t f f;
#X obj 119 192 change;
#X obj 119 50 inlet;
#X obj 195 49 inlet;
#X obj 119 236 outlet;
#X obj 207 201 outlet;
#X connect 0 0 5 0;
#X connect 1 0 0 0;
#X connect 2 0 3 0;
#X connect 2 1 0 1;
#X connect 3 0 0 0;
#X connect 4 0 9 0;
#X connect 4 1 2 0;
#X connect 5 0 8 0;
#X connect 6 0 4 0;
#X connect 7 0 1 0;
#X restore 138 366 pd;
#N canvas 731 386 450 300 (subpatch) 0;
#X obj 119 166 switch;
#X msg 119 140 1;
#X obj 206 114 t b f;
#X msg 206 140 0;
#X obj 119 88 t f f;
#X obj 119 192 change;
#X obj 119 50 inlet;
#X obj 195 49 inlet;
#X obj 119 236 outlet;
#X obj 207 201 outlet;
#X connect 0 0 5 0;
#X connect 1 0 0 0;
#X connect 2 0 3 0;
#X connect 2 1 0 1;
#X connect 3 0 0 0;
#X connect 4 0 9 0;
#X connect 4 1 2 0;
#X connect 5 0 8 0;
#X connect 6 0 4 0;
#X connect 7 0 1 0;
#X restore 22 366 pd;
#X msg 437 -133 close;
#X obj 50 366 match 176 32;
#X obj 166 366 match 176 33;
#X obj 290 366 match 176 34;
#X obj 422 366 match 176 35;
#X floatatom 515 400 5 0 0 0 - - -;
#X floatatom 631 400 5 0 0 0 - - -;
#X floatatom 749 400 5 0 0 0 - - -;
#X floatatom 878 400 5 0 0 0 - - -;
#N canvas 732 385 450 300 (subpatch) 0;
#X obj 119 166 switch;
#X msg 119 140 1;
#X obj 206 114 t b f;
#X msg 206 140 0;
#X obj 119 88 t f f;
#X obj 119 192 change;
#X obj 119 50 inlet;
#X obj 195 49 inlet;
#X obj 119 236 outlet;
#X obj 207 201 outlet;
#X connect 0 0 5 0;
#X connect 1 0 0 0;
#X connect 2 0 3 0;
#X connect 2 1 0 1;
#X connect 3 0 0 0;
#X connect 4 0 9 0;
#X connect 4 1 2 0;
#X connect 5 0 8 0;
#X connect 6 0 4 0;
#X connect 7 0 1 0;
#X restore 878 366 pd;
#N canvas 731 386 450 300 (subpatch) 0;
#X obj 119 166 switch;
#X msg 119 140 1;
#X obj 206 114 t b f;
#X msg 206 140 0;
#X obj 119 88 t f f;
#X obj 119 192 change;
#X obj 119 50 inlet;
#X obj 195 49 inlet;
#X obj 119 236 outlet;
#X obj 207 201 outlet;
#X connect 0 0 5 0;
#X connect 1 0 0 0;
#X connect 2 0 3 0;
#X connect 2 1 0 1;
#X connect 3 0 0 0;
#X connect 4 0 9 0;
#X connect 4 1 2 0;
#X connect 5 0 8 0;
#X connect 6 0 4 0;
#X connect 7 0 1 0;
#X restore 749 366 pd;
#N canvas 731 386 450 300 (subpatch) 0;
#X obj 119 166 switch;
#X msg 119 140 1;
#X obj 206 114 t b f;
#X msg 206 140 0;
#X obj 119 88 t f f;
#X obj 119 192 change;
#X obj 119 50 inlet;
#X obj 195 49 inlet;
#X obj 119 236 outlet;
#X obj 207 201 outlet;
#X connect 0 0 5 0;
#X connect 1 0 0 0;
#X connect 2 0 3 0;
#X connect 2 1 0 1;
#X connect 3 0 0 0;
#X connect 4 0 9 0;
#X connect 4 1 2 0;
#X connect 5 0 8 0;
#X connect 6 0 4 0;
#X connect 7 0 1 0;
#X restore 631 366 pd;
#N canvas 731 386 450 300 (subpatch) 0;
#X obj 119 166 switch;
#X msg 119 140 1;
#X obj 206 114 t b f;
#X msg 206 140 0;
#X obj 119 88 t f f;
#X obj 119 192 change;
#X obj 119 50 inlet;
#X obj 195 49 inlet;
#X obj 119 236 outlet;
#X obj 207 201 outlet;
#X connect 0 0 5 0;
#X connect 1 0 0 0;
#X connect 2 0 3 0;
#X connect 2 1 0 1;
#X connect 3 0 0 0;
#X connect 4 0 9 0;
#X connect 4 1 2 0;
#X connect 5 0 8 0;
#X connect 6 0 4 0;
#X connect 7 0 1 0;
#X restore 515 366 pd;
#X obj 693 293 r sin;
#X obj 543 366 match 176 48;
#X obj 659 366 match 176 49;
#X obj 783 366 match 176 50;
#X obj 915 366 match 176 51;
#X obj 211 22 r posc;
#X obj 211 46 packOSC;
#X msg 22 453 send /1/speed1 \$1;
#X obj 22 479 s posc;
#X obj 22 428 / 64;
#X obj 138 477 s posc;
#X obj 138 426 / 64;
#X obj 256 480 s posc;
#X obj 256 429 / 64;
#X obj 385 479 s posc;
#X obj 385 428 / 64;
#X msg 385 453 send /1/speed4 \$1;
#X msg 138 451 send /1/speed3 \$1;
#X msg 256 454 send /1/speed2 \$1;
#X obj 516 478 s posc;
#X obj 516 427 / 64;
#X obj 632 476 s posc;
#X obj 632 425 / 64;
#X obj 750 479 s posc;
#X obj 750 428 / 64;
#X obj 879 478 s posc;
#X obj 879 427 / 64;
#X msg 516 451 send /1/current1 \$1;
#X msg 632 450 send /1/current3 \$1;
#X msg 750 453 send /1/current2 \$1;
#X msg 879 452 send /1/current4 \$1;
#X obj 775 54 s posc;
#X obj 505 -84 route /1/left /1/right;
#X obj 505 -33 vsl 15 128 -64 64 0 0 empty empty empty 0 -9 0 10 -262144
-1 -1 6350 1;
#X obj 569 -32 vsl 15 128 -64 64 0 0 empty empty empty 0 -9 0 10 -262144
-1 -1 6350 1;
#X msg 623 -58 0;
#X msg 682 -58 0;
#X floatatom 505 157 5 0 0 0 - - -;
#X floatatom 569 157 5 0 0 0 - - -;
#X msg 775 -4 send /1/right 0;
#X msg 668 -4 send /1/left 0;
#X obj 505 105 int;
#X obj 569 106 int;
#X obj 505 127 + 64;
#X obj 569 128 + 64;
#X msg 504 183 176 80 \$1;
#X msg 568 181 176 81 \$1;
#X obj 248 -136 r ser;
#X obj 504 208 s ser;
#X obj 568 208 s ser;
#X obj 20 -158 loadbang;
#X msg 20 -133 1;
#X obj 20 -86 metro 1000;
#X obj 20 -62 t b b;
#X obj 104 107 tgl 15 0 empty empty empty 17 7 0 10 -262144 -1 -1 1
1;
#X obj 104 -26 switch;
#X obj 82 39 + 1;
#X obj 20 -109 t f f;
#X msg 20 126 send /setup/status Online;
#X obj 20 153 s posc;
#X obj 880 -83 route /setup/pingA;
#X msg 880 -5 send /setup/pingB \$1;
#X obj 292 -166 loadbang;
#X connect 1 0 87 0;
#X connect 2 0 1 0;
#X connect 3 0 1 0;
#X connect 4 0 5 0;
#X connect 5 0 6 0;
#X connect 5 0 65 0;
#X connect 5 0 93 0;
#X connect 6 0 73 0;
#X connect 6 0 68 0;
#X connect 6 1 72 0;
#X connect 6 1 69 0;
#X connect 7 0 11 0;
#X connect 8 0 7 0;
#X connect 9 0 7 0;
#X connect 10 0 42 0;
#X connect 12 0 16 0;
#X connect 12 0 17 0;
#X connect 12 0 18 0;
#X connect 12 0 19 0;
#X connect 13 0 44 0;
#X connect 14 0 46 0;
#X connect 15 0 48 0;
#X connect 16 0 15 0;
#X connect 16 1 24 0;
#X connect 17 0 14 0;
#X connect 17 1 23 0;
#X connect 18 0 13 0;
#X connect 18 1 22 0;
#X connect 19 0 10 0;
#X connect 19 1 21 0;
#X connect 20 0 7 0;
#X connect 21 0 19 1;
#X connect 22 0 18 1;
#X connect 23 0 17 1;
#X connect 24 0 16 1;
#X connect 25 0 53 0;
#X connect 26 0 55 0;
#X connect 27 0 57 0;
#X connect 28 0 59 0;
#X connect 29 0 28 0;
#X connect 29 1 37 0;
#X connect 30 0 27 0;
#X connect 30 1 36 0;
#X connect 31 0 26 0;
#X connect 31 1 35 0;
#X connect 32 0 25 0;
#X connect 32 1 34 0;
#X connect 33 0 32 0;
#X connect 33 0 31 0;
#X connect 33 0 30 0;
#X connect 33 0 29 0;
#X connect 34 0 32 1;
#X connect 35 0 31 1;
#X connect 36 0 30 1;
#X connect 37 0 29 1;
#X connect 38 0 39 0;
#X connect 39 0 1 0;
#X connect 40 0 41 0;
#X connect 42 0 40 0;
#X connect 44 0 50 0;
#X connect 46 0 51 0;
#X connect 48 0 49 0;
#X connect 49 0 47 0;
#X connect 50 0 43 0;
#X connect 51 0 45 0;
#X connect 53 0 60 0;
#X connect 55 0 61 0;
#X connect 57 0 62 0;
#X connect 59 0 63 0;
#X connect 60 0 52 0;
#X connect 61 0 54 0;
#X connect 62 0 56 0;
#X connect 63 0 58 0;
#X connect 65 0 66 0;
#X connect 65 1 67 0;
#X connect 66 0 74 0;
#X connect 67 0 75 0;
#X connect 68 0 66 0;
#X connect 69 0 67 0;
#X connect 70 0 78 0;
#X connect 71 0 79 0;
#X connect 72 0 64 0;
#X connect 73 0 64 0;
#X connect 74 0 76 0;
#X connect 75 0 77 0;
#X connect 76 0 70 0;
#X connect 77 0 71 0;
#X connect 78 0 81 0;
#X connect 79 0 82 0;
#X connect 80 0 7 0;
#X connect 83 0 84 0;
#X connect 84 0 90 0;
#X connect 85 0 86 0;
#X connect 86 0 91 0;
#X connect 86 1 88 1;
#X connect 87 0 89 0;
#X connect 88 0 2 0;
#X connect 89 0 88 0;
#X connect 90 0 85 0;
#X connect 90 1 88 0;
#X connect 91 0 92 0;
#X connect 93 0 94 0;
#X connect 94 0 64 0;
#X connect 95 0 8 0;
